<svg xmlns="http://www.w3.org/2000/svg" enable-background="new 0 0 47.5 47.5" viewBox="0 0 47.5 47.5"><defs><clipPath id="a" clipPathUnits="userSpaceOnUse"><path d="M 0,38 38,38 38,0 0,0 0,38 Z"/></clipPath></defs><g clip-path="url(#a)" transform="matrix(1.25 0 0 -1.25 0 47.5)"><path fill="#d99e82" d="m 0,0 c -0.395,-1.346 -2.46,-1.924 -4.613,-1.291 -2.153,0.632 -3.578,2.234 -3.183,3.581 0.395,1.346 2.461,1.924 4.613,1.29 C -1.029,2.949 0.396,1.347 0,0 m -2.849,24.447 c -9.941,0 -18,-6.908 -18,-15.428 0,-1.067 0.127,-2.108 0.367,-3.113 1.779,-3.06 3.01,-1.128 8.633,1.684 5.727,2.864 0,-4 -2,-8 -0.615,-1.231 -0.281,-2.272 0.56,-3.124 2.946,-1.804 6.544,-2.876 10.44,-2.876 9.942,0 18,6.907 18,15.429 0,8.52 -8.058,15.428 -18,15.428" transform="translate(21.849 9.41)"/><path fill="#5c913b" d="m 0,0 c 0,-1.657 -1.343,-3 -3,-3 -1.657,0 -3,1.343 -3,3 0,1.657 1.343,3 3,3 1.657,0 3,-1.343 3,-3" transform="translate(14 26)"/><path fill="#269" d="m 0,0 c 0,-1.657 -1.344,-3 -3,-3 -1.657,0 -3,1.343 -3,3 0,1.657 1.343,3 3,3 1.656,0 3,-1.343 3,-3" transform="translate(24 28)"/><path fill="#dd2e44" d="m 0,0 c 0,-1.657 -1.344,-3 -3,-3 -1.656,0 -3,1.343 -3,3 0,1.657 1.344,3 3,3 1.656,0 3,-1.343 3,-3" transform="translate(33 22)"/><path fill="#ffcc4d" d="m 0,0 c 0,-1.656 -1.344,-3 -3,-3 -1.656,0 -3,1.344 -3,3 0,1.656 1.344,3 3,3 1.656,0 3,-1.344 3,-3" transform="translate(32 13)"/></g></svg>