<svg xmlns="http://www.w3.org/2000/svg" enable-background="new 0 0 47.5 47.5" viewBox="0 0 47.5 47.5"><defs><clipPath id="a" clipPathUnits="userSpaceOnUse"><path d="M 0,38 38,38 38,0 0,0 0,38 Z"/></clipPath></defs><g clip-path="url(#a)" transform="matrix(1.25 0 0 -1.25 0 47.5)"><path fill="#58595b" d="m 0,0 c 0,-3.866 -3.135,-7 -7,-7 -3.867,0 -7,3.134 -7,7 0,3.866 3.133,7 7,7 3.865,0 7,-3.134 7,-7" transform="translate(25 26)"/><path fill="#58595b" d="m 0,0 c 0,-3.313 -2.687,-6 -6,-6 -3.313,0 -6,2.687 -6,6 0,3.313 2.687,6 6,6 3.313,0 6,-2.687 6,-6" transform="translate(34.999 23)"/><path fill="#939598" d="m 0,0 c 0,-2.761 -2.239,-5 -5,-5 -2.762,0 -5,2.239 -5,5 0,2.761 2.238,5 5,5 2.761,0 5,-2.239 5,-5" transform="translate(23 26)"/><path fill="#bcbec0" d="m 0,0 c 0,-1.104 -1,-2 -2,-2 -1,0 -2,0.896 -2,2 0,1.104 0.896,2 2,2 1.104,0 2,-0.896 2,-2" transform="translate(20 26)"/><path fill="#58595b" d="m 0,0 c 0,-2.209 -1.791,-4 -4,-4 l -13,0 c -2.209,0 -4,1.791 -4,4 l 0,8 c 0,2.209 1.791,4 4,4 l 13,0 c 2.209,0 4,-1.791 4,-4 L 0,0 Z" transform="translate(31 8)"/><path fill="#58595b" d="m 24,19 -3,0 0,3 3,0 0,-3 z"/><path fill="#939598" d="m 0,0 c 0,-2.209 -1.791,-4 -4,-4 -2.209,0 -4,1.791 -4,4 0,2.209 1.791,4 4,4 2.209,0 4,-1.791 4,-4" transform="translate(32.999 23)"/><path fill="#bcbec0" d="m 0,0 c 0,-1.104 -0.896,-2 -2,-2 -1.104,0 -2,0.896 -2,2 0,1.104 0.896,2 2,2 1.104,0 2,-0.896 2,-2" transform="translate(30.999 23)"/><path fill="#58595b" d="M 0,0 -1.999,0 -2,0 l -6,4 -1,0 0,-14 1,0 6,4 10e-4,0 L 0,-6 c 1.657,0 3,1.343 3,3 0,1.657 -1.343,3 -3,3" transform="translate(11 16)"/><path fill="#58595b" d="m 0,0 0,-1 -5,0 c -1.104,0 -2,-0.896 -2,-2 0,-1.104 0.896,-2 2,-2 l 5,0 0,-1 3,0 0,6 -3,0 z" transform="translate(33 16)"/><path fill="#808285" d="M 28,7 18,7 18,17 28,17 28,7 Z"/><path fill="#58595b" d="m 26,9 -6,0 0,6 6,0 0,-6 z"/><path fill="#808285" d="m 0,0 c 0,-1.104 -0.896,-2 -2,-2 -1.104,0 -2,0.896 -2,2 0,1.104 0.896,2 2,2 1.104,0 2,-0.896 2,-2" transform="translate(15.999 9)"/></g></svg>