<svg xmlns="http://www.w3.org/2000/svg" enable-background="new 0 0 66 66" viewBox="0 0 66 66"><path fill="#582219" d="M36.6232,8.619V2.4773c0-0.8027-0.6507-1.4534-1.4534-1.4534h-3.6896
			c-0.8027,0-1.4534,0.6507-1.4534,1.4534V8.619H36.6232z"/><path fill="#EC9140" d="M61.932,10.1853v32.5107H4.718V10.1853c0-1.6053,1.3014-2.9067,2.9067-2.9067h51.4006
			C60.6306,7.2786,61.932,8.58,61.932,10.1853z"/><path fill="#CE8142" d="M61.932,10.1853v32.5069H4.718v-2.6355H34.21c11.0439,0,19.9968-8.9529,19.9968-19.9968V7.2786h4.8185
			C60.6306,7.2786,61.932,8.58,61.932,10.1853z"/><path fill="#FFFBF4" d="M7.7182,38.6963v-27.418c0-0.5523,0.4477-1,1-1h49.2139c0.5523,0,1,0.4477,1,1v27.418
			c0,0.5523-0.4477,1-1,1H8.7182C8.1659,39.6963,7.7182,39.2486,7.7182,38.6963z"/><path fill="#FFFBF4" d="M58.93,11.2821v27.41c0,0.56-0.45,1-1,1H8.72c-0.47,0-0.87-0.33-0.97-0.78c-0.02-0.07-0.03-0.14-0.03-0.22
			v-27.41c0-0.56,0.45-1,1-1h49.21C58.48,10.2821,58.93,10.7221,58.93,11.2821z"/><path fill="#EAE4DD" d="M57.9321,10.2784h-3.517v29.418h3.517c0.5523,0,1-0.4478,1-1v-27.418
			C58.9321,10.7261,58.4844,10.2784,57.9321,10.2784z"/><path fill="#EC9140" d="M65,44.1961v2.78c0,0.8284-0.6716,1.5-1.5,1.5h-61c-0.8284,0-1.5-0.6716-1.5-1.5v-2.78
			c0-0.8284,0.6716-1.5,1.5-1.5h61C64.3284,42.6961,65,43.3676,65,44.1961z"/><path fill="#CE8142" d="M65,44.1921v2.78c0,0.8284-0.6716,1.5-1.5,1.5h-61c-0.8284,0-1.5-0.6716-1.5-1.5v-0.33h58.1801
			c2.1815,0,3.9499-1.7685,3.9499-3.9499v0h0.37C64.325,42.6921,65,43.3671,65,44.1921z"/><path fill="#6F362A" d="M35.94,63.4761v-15.05h-5.88v15.05c0,0.8284,0.6716,1.5,1.5,1.5h2.88
				C35.2684,64.9761,35.94,64.3045,35.94,63.4761z"/><path fill="#582219" d="M35.94,48.426v15.05c0,0.83-0.67,1.5-1.5,1.5h-1.96c0.83,0,1.5-0.67,1.5-1.5v-15.05H35.94z"/><rect width="31.68" height="3.91" x="17.16" y="54.746" fill="#6F362A"/><polygon fill="#582219" points="48.84 54.866 48.84 58.656 44.68 58.656 42.9 54.746 48.78 54.746"/><path fill="#874B41" d="M42.3551,54.7461H23.6449v0c0,1.3474,1.0923,2.4397,2.4397,2.4397h13.8308
				C41.2628,57.1858,42.3551,56.0935,42.3551,54.7461L42.3551,54.7461z"/><path fill="#6F362A" d="M24.1389 48.426L17.038 64.0952c-.243.5363-.7774.8809-1.3663.8809h-2.5863c-1.0902 0-1.8162-1.1262-1.3663-2.1191l6.5397-14.4309H24.1389zM41.8611 48.426l7.1008 15.6692c.2431.5363.7774.8809 1.3663.8809h2.5863c1.0902 0 1.8162-1.1262 1.3663-2.1191L47.7411 48.426H41.8611z"/><path fill="#582219" d="M24.14 48.426l-7.1 15.67c-.24.54-.78.88-1.37.88h-1.5c.59 0 1.12-.34 1.36-.88l7.1-15.67H24.14zM52.91 64.9761h-1.5c1.09 0 1.82-1.13 1.37-2.1201l-6.54-14.43h1.5l6.54 14.43C54.73 63.8461 54 64.9761 52.91 64.9761z"/><path fill="#6F362A" d="M43.1282,6.4532v3.6897c0,0.8027-0.6507,1.4534-1.4534,1.4534H24.9752
			c-0.8027,0-1.4534-0.6507-1.4534-1.4534V6.4532c0-0.8027,0.6507-1.4534,1.4534-1.4534h16.6996
			C42.4775,4.9999,43.1282,5.6506,43.1282,6.4532z"/><path fill="#582219" d="M43.1255,6.455v3.6915c0,0.7993-0.654,1.4534-1.4534,1.4534H24.9778
			c-0.7557,0-1.3758-0.5813-1.4437-1.3177h12.8283c2.8414,0,5.1449-2.3034,5.1449-5.1449v0c0-0.0484,0-0.0969-0.0097-0.1357h0.1745
			C42.4748,5.0017,43.1255,5.6524,43.1255,6.455z"/><path fill="#874B41" d="M32.4181 6.8492c0 .4124-.3414.7395-.7539.7395h-5.7365c-.4124 0-.7396-.3271-.7396-.7395 0-.4125.3272-.7539.7396-.7539h5.7365C32.0767 6.0953 32.4181 6.4367 32.4181 6.8492zM37.6667 6.8492c0 .4124-.3271.7395-.7396.7395h-2.916c-.4125 0-.7396-.3271-.7396-.7395 0-.4125.3271-.7539.7396-.7539h2.916C37.3396 6.0953 37.6667 6.4367 37.6667 6.8492z"/><path fill="#F7A669" d="M6.072 18.4809c-.4124 0-.7395-.3414-.7395-.7539v-5.7365c0-.4124.3271-.7396.7395-.7396.4125 0 .7539.3272.7539.7396v5.7365C6.8259 18.1395 6.4846 18.4809 6.072 18.4809zM6.072 23.7295c-.4124 0-.7395-.3271-.7395-.7396v-2.916c0-.4125.3271-.7396.7395-.7396.4125 0 .7539.3271.7539.7396v2.916C6.8259 23.4024 6.4846 23.7295 6.072 23.7295z"/><path fill="#4F6555" d="M39.62,39.6921H8.72c-0.47,0-0.87-0.33-0.97-0.78l12.74-11.91c2.19-2.05,5.62-1.92,7.65,0.28l4.34,4.69
			L39.62,39.6921z"/><path fill="#394A39" d="M39.62,39.6921H8.72c-0.47,0-0.87-0.33-0.97-0.78l0.72-0.67h15.3057c4.5664,0,6.9439-5.438,3.843-8.7901
			L24.27,25.8321c-0.1-0.11-0.2-0.21-0.3-0.28c1.52-0.06,3.06,0.52,4.17,1.73l4.34,4.69L39.62,39.6921z"/><path fill="#4F6555" d="M58.93,38.1921v0.5c0,0.56-0.45,1-1,1H26.04l6.44-7.72l7.43-8.9c2.27-2.73,6.51-2.56,8.56,0.34
			L58.93,38.1921z"/><path fill="#394A39" d="M43.4631,37.6721c5.1395,0,8.2442-5.6851,5.466-10.009L44.9,21.3921c-0.06-0.08-0.11-0.16-0.18-0.23
			c1.44,0.17,2.82,0.93,3.75,2.25l10.46,14.78v0.5c0,0.56-0.45,1-1,1H26.04l1.69-2.02H43.4631z"/><circle cx="17.456" cy="18.477" r="3.828" fill="#FFD347"/><path fill="#FFF25D" d="M20.9036,16.8114c-0.5071-0.248-1.0705-0.3832-1.6679-0.3832c-2.1187,0-3.8316,1.713-3.8316,3.8316
				c0,0.5972,0.1353,1.1494,0.3832,1.6566c-1.2847-0.6198-2.1637-1.9271-2.1637-3.4372c0-2.1187,1.7129-3.8316,3.8316-3.8316
				C18.9766,14.6476,20.2838,15.5267,20.9036,16.8114z"/><path fill="#293B30" d="M34.7362 22.9245c-.2762 0-.5018-.2256-.5018-.5018 0-.9619-.7825-1.7443-1.7443-1.7443-.2762 0-.5007-.2245-.5007-.5007 0-.2762.2245-.5018.5007-.5018.9002 0 1.7366.4446 2.2462 1.1655.5095-.7208 1.3448-1.1655 2.2451-1.1655.2762 0 .5018.2256.5018.5018 0 .2762-.2256.5007-.5018.5007-.9608 0-1.7432.7825-1.7432 1.7443C35.238 22.6989 35.0124 22.9245 34.7362 22.9245zM42.3158 16.8885c-.2762 0-.5018-.2256-.5018-.5018 0-.9619-.7825-1.7443-1.7443-1.7443-.2762 0-.5018-.2245-.5018-.5007s.2256-.5018.5018-.5018c.9002 0 1.7366.4446 2.2462 1.1655.5084-.7208 1.3437-1.1655 2.2451-1.1655.2762 0 .5018.2256.5018.5018s-.2256.5007-.5018.5007c-.9619 0-1.7443.7825-1.7443 1.7443C42.8165 16.6628 42.592 16.8885 42.3158 16.8885zM49.5873 21.3001c-.2762 0-.5018-.2256-.5018-.5018 0-.9619-.7825-1.7443-1.7443-1.7443-.2762 0-.5018-.2256-.5018-.5018 0-.2762.2256-.5007.5018-.5007.9002 0 1.7366.4446 2.2462 1.1655.5084-.7208 1.3437-1.1655 2.2451-1.1655.2762 0 .5018.2245.5018.5007 0 .2762-.2256.5018-.5018.5018-.9619 0-1.7443.7825-1.7443 1.7443C50.0881 21.0745 49.8636 21.3001 49.5873 21.3001z"/><path fill="#607264" d="M16.5348 33.1332c-.2804-.3024-.2525-.7744.05-1.0549l4.2065-3.9004c.3024-.2804.7648-.263 1.0452.0394.2805.3025.2726.7753-.0298 1.0557l-4.2065 3.9004C17.2978 33.4539 16.8153 33.4357 16.5348 33.1332zM12.6861 36.7019c-.2804-.3024-.263-.7647.0395-1.0452l2.1382-1.9826c.3025-.2805.7648-.263 1.0452.0394.2805.3025.2727.7752-.0298 1.0557l-2.1382 1.9826C13.4386 37.0323 12.9666 37.0044 12.6861 36.7019zM35.9782 31.9463c-.3257-.2531-.3745-.7234-.1214-1.049l3.5198-4.5297c.2531-.3257.7121-.3833 1.0378-.1303.3257.2531.3945.7209.1415 1.0466l-3.5198 4.5297C36.783 32.1392 36.304 32.1994 35.9782 31.9463zM32.7578 36.0908c-.3257-.2531-.3833-.7121-.1301-1.0378l1.7892-2.3025c.2531-.3257.7121-.3833 1.0378-.1303.3257.2531.3946.7208.1415 1.0466l-1.7892 2.3025C33.5538 36.295 33.0836 36.3439 32.7578 36.0908z"/></svg>