<svg xmlns="http://www.w3.org/2000/svg" viewBox="0 0 83 83"><path fill="#DFE1E0" d="M26.7 31.4l-1.5-5.7c-.3-1.2-1.4-2-2.6-2h-9.4c-1.2 0-2.3.8-2.6 2l-1.5 5.7-.6 2.2h18.8l-.6-2.2z"/><path fill="#DFE1E0" d="M37.1 11.6h40.7V43H37.1z" transform="rotate(24.91 57.428 27.283)"/><path fill="#69A3D8" d="M40.7 14.9h33.5v24.7H40.7z" transform="rotate(24.91 57.427 27.282)"/><path fill="#EFF4F5" d="M61 18.6c.6 3.1-3.2 4.5-4.7 1.7v-.1c-.6-3.1 3.2-4.5 4.7-1.7v.1z"/><path fill="#30924F" d="M55.2 39.8l-1.6-13.3-5.3-2.5-11.2 7.4z"/><path fill="#DFE1E0" d="M53 21l-4.7 3-1.4 1 2.1-.6-.6 1.2 1.7-.7v2.2l1.7-1.5.2 1.7.8-1.2 1 2-.2-1.6z"/><path fill="#30924F" d="M67.4 45.5L66 33.4l-4.8-2.2L51 37.9z"/><path fill="#DFE1E0" d="M65.4 28.4l-4.2 2.8-1.4.9 2-.6-.6 1.1 1.6-.6v2l1.5-1.4.3 1.6.6-1.2.9 1.9-.1-1.5z"/><path fill="#7CC78F" d="M59.4 42l-1-8.2-3.2-1.5-6.9 4.6z"/><path fill="#EFF4F5" d="M58 30.4l-2.8 1.9-.9.6 1.3-.4-.4.8 1.1-.4v1.3l1-.9.2 1 .4-.7.6 1.2-.1-1z"/><path fill="#747474" d="M62 78.5H4.4c-2.2 0-3.9-1.8-3.9-3.9v-37c0-2.2 1.8-3.9 3.9-3.9H62c2.2 0 3.9 1.8 3.9 3.9v37c0 2.2-1.7 3.9-3.9 3.9z"/><path fill="#DFE1E0" d="M14.3 42.4H9.6c-.9 0-1.5-.7-1.5-1.5 0-.9.7-1.5 1.5-1.5h4.7c.9 0 1.5.7 1.5 1.5.1.8-.6 1.5-1.5 1.5z"/><circle cx="41.1" cy="56.1" r="16.3" fill="#BAB9BB"/><circle cx="41.1" cy="56.1" r="11.8" fill="#747474"/><circle cx="41.1" cy="56.1" r="7.2" fill="#2D2E2E"/><ellipse cx="38.5" cy="53.2" fill="#FFF" opacity=".51" rx="3.5" ry="2" transform="rotate(-45.001 38.47 53.244)"/></svg>