<?xml version="1.0" encoding="utf-8"?>
<!-- Generator: Adobe Illustrator 24.0.0, SVG Export Plug-In . SVG Version: 6.00 Build 0)  -->
<svg version="1.1" id="Layer_1" xmlns="http://www.w3.org/2000/svg" xmlns:xlink="http://www.w3.org/1999/xlink" x="0px" y="0px"
	 viewBox="0 0 100 115.7" style="enable-background:new 0 0 100 115.7;" xml:space="preserve">
<style type="text/css">
	.st0{fill:#251552;}
</style>
<title>Artboard 33</title>
<path class="st0" d="M99.9,33.9c0-2-1-3.9-2.8-5L53.2,0.9c-2-1.2-4.5-1.2-6.4,0L2.9,28.9c-1.7,1.1-2.8,3-2.8,5v75.8c0,3.3,2.7,6,6,6
	c1.1,0,2.2-0.3,3.2-0.9L50,88.9l40.7,25.9c2.8,1.8,6.5,1,8.3-1.8c0.6-1,0.9-2.1,0.9-3.3V33.9z M50,13.1l37.9,24.1v23.7L53.2,38.8
	c-2-1.2-4.5-1.2-6.4,0L12.1,60.9V37.2L50,13.1z M53.2,76.7c-2-1.2-4.5-1.2-6.4,0L12.1,98.8V75.1L50,51l37.9,24.1v23.7L53.2,76.7z"/>
</svg>
