<svg xmlns="http://www.w3.org/2000/svg" enable-background="new 0 0 64 64" viewBox="0 0 64 64"><path fill="#4e9bb9" d="M58.201,45.619L35.053,61.371c-1.826,1.243-4.314,0.77-5.557-1.057L4.742,23.938
	c-1.243-1.826-0.77-4.314,1.057-5.557L28.947,2.629c1.826-1.243,4.314-0.77,5.557,1.057l24.753,36.377
	C60.501,41.888,60.028,44.377,58.201,45.619z"/><path fill="#7bc2cc" d="M52.504,53.251l-26.959,7.565c-2.127,0.597-4.335-0.644-4.932-2.771L8.725,15.681
	c-0.597-2.127,0.644-4.335,2.771-4.932l26.959-7.565c2.127-0.597,4.335,0.644,4.932,2.771l11.888,42.364
	C55.871,50.446,54.631,52.654,52.504,53.251z"/><path fill="#91cbd7" d="M46,58H18c-2.209,0-4-1.791-4-4V10c0-2.209,1.791-4,4-4h28c2.209,0,4,1.791,4,4v44
	C50,56.209,48.209,58,46,58z"/><path fill="#ed6571" d="M43,32c0,0.34-0.02,0.67-0.05,1c-0.5,5.61-5.21,10-10.95,10s-10.45-4.39-10.95-10
	C21.02,32.67,21,32.34,21,32c0-0.34,0.02-0.67,0.05-1c0.5-5.61,5.21-10,10.95-10s10.45,4.39,10.95,10C42.98,31.33,43,31.66,43,32z"/><path fill="#ffe5ca" d="M43,32c0,6.075-4.925,11-11,11s-11-4.925-11-11H43z"/><circle cx="32" cy="32" r="3" fill="#ffe5ca"/><path fill="#68607c" d="M42.95,31h-7.09c-0.45-1.72-2-3-3.86-3s-3.41,1.28-3.86,3h-7.09C21.02,31.33,21,31.66,21,32
	c0,0.34,0.02,0.67,0.05,1h7.09c0.45,1.72,2,3,3.86,3s3.41-1.28,3.86-3h7.09c0.03-0.33,0.05-0.66,0.05-1
	C43,31.66,42.98,31.33,42.95,31z M32,34c-1.1,0-2-0.9-2-2c0-1.1,0.9-2,2-2s2,0.9,2,2C34,33.1,33.1,34,32,34z"/><rect width="2" height="2" x="17" y="9" fill="#68607c"/><rect width="2" height="2" x="45" y="9" fill="#68607c"/><rect width="2" height="2" x="17" y="53" fill="#68607c"/><rect width="2" height="2" x="45" y="53" fill="#68607c"/></svg>